# XSI Wavefront OBJ Export v3.0
# File Created: Thu May 21 00:25:02 2020
# XSI Version: 13.0.114.0
o disc
# Hierarchy (from self to top father)
g disc

#begin 33 vertices
v -0.010000 0.000000 0.000000
v -1.000000 0.000000 0.000000
v -0.009239 0.000000 0.003827
v -0.923880 0.000000 0.382683
v -0.007071 0.000000 0.007071
v -0.707107 0.000000 0.707107
v -0.003827 0.000000 0.009239
v -0.382683 0.000000 0.923880
v -0.000000 0.000000 0.010000
v -0.000000 0.000000 1.000000
v 0.003827 0.000000 0.009239
v 0.382683 0.000000 0.923880
v 0.007071 0.000000 0.007071
v 0.707107 0.000000 0.707107
v 0.009239 0.000000 0.003827
v 0.923880 0.000000 0.382683
v 0.010000 0.000000 0.000000
v 1.000000 0.000000 0.000000
v 0.009239 0.000000 -0.003827
v 0.923880 0.000000 -0.382683
v 0.007071 0.000000 -0.007071
v 0.707107 0.000000 -0.707107
v 0.003827 0.000000 -0.009239
v 0.382683 0.000000 -0.923880
v 0.000000 0.000000 -0.010000
v 0.000000 0.000000 -1.000000
v -0.003827 0.000000 -0.009239
v -0.382683 0.000000 -0.923880
v -0.007071 0.000000 -0.007071
v -0.707107 0.000000 -0.707107
v -0.009239 0.000000 -0.003827
v -0.923880 0.000000 -0.382683
v -0.001924 0.000000 0.004645
#end 33 vertices

#begin 96 normals
vn 0.000000 -1.000000 0.000000
vn 0.000000 -1.000000 0.000000
vn 0.000000 -1.000000 0.000000
vn 0.000000 -1.000000 0.000000
vn 0.000000 -1.000000 0.000000
vn 0.000000 -1.000000 0.000000
vn 0.000000 -1.000000 0.000000
vn 0.000000 -1.000000 0.000000
vn 0.000000 -1.000000 0.000000
vn 0.000000 -1.000000 0.000000
vn 0.000000 -1.000000 0.000000
vn 0.000000 -1.000000 0.000000
vn 0.000000 1.000000 0.000000
vn 0.000000 1.000000 0.000000
vn 0.000000 1.000000 0.000000
vn 0.000000 1.000000 0.000000
vn 0.000000 1.000000 0.000000
vn 0.000000 1.000000 0.000000
vn 0.000000 1.000000 0.000000
vn 0.000000 1.000000 0.000000
vn 0.000000 1.000000 0.000000
vn 0.000000 1.000000 0.000000
vn 0.000000 1.000000 0.000000
vn 0.000000 1.000000 0.000000
vn 0.000000 1.000000 0.000000
vn 0.000000 1.000000 0.000000
vn 0.000000 1.000000 0.000000
vn 0.000000 1.000000 0.000000
vn 0.000000 1.000000 0.000000
vn 0.000000 1.000000 0.000000
vn 0.000000 1.000000 0.000000
vn 0.000000 1.000000 0.000000
vn 0.000000 1.000000 0.000000
vn 0.000000 1.000000 0.000000
vn 0.000000 1.000000 0.000000
vn 0.000000 1.000000 0.000000
vn 0.000000 -1.000000 0.000000
vn 0.000000 1.000000 0.000000
vn 0.000000 -1.000000 0.000000
vn 0.000000 -1.000000 0.000000
vn 0.000000 -1.000000 0.000000
vn 0.000000 1.000000 0.000000
vn 0.000000 -1.000000 0.000000
vn 0.000000 -1.000000 0.000000
vn 0.000000 -1.000000 0.000000
vn 0.000000 1.000000 0.000000
vn 0.000000 -1.000000 0.000000
vn 0.000000 -1.000000 0.000000
vn 0.000000 -1.000000 0.000000
vn 0.000000 1.000000 0.000000
vn 0.000000 -1.000000 0.000000
vn 0.000000 -1.000000 0.000000
vn 0.000000 -1.000000 0.000000
vn 0.000000 1.000000 0.000000
vn 0.000000 -1.000000 0.000000
vn 0.000000 -1.000000 0.000000
vn 0.000000 -1.000000 0.000000
vn 0.000000 1.000000 0.000000
vn 0.000000 -1.000000 0.000000
vn 0.000000 -1.000000 0.000000
vn 0.000000 -1.000000 0.000000
vn 0.000000 1.000000 0.000000
vn 0.000000 -1.000000 0.000000
vn 0.000000 -1.000000 0.000000
vn 0.000000 -1.000000 0.000000
vn 0.000000 1.000000 0.000000
vn 0.000000 -1.000000 0.000000
vn 0.000000 -1.000000 0.000000
vn 0.000000 -1.000000 0.000000
vn 0.000000 1.000000 0.000000
vn 0.000000 -1.000000 0.000000
vn 0.000000 -1.000000 0.000000
vn 0.000000 -1.000000 0.000000
vn 0.000000 1.000000 0.000000
vn 0.000000 -1.000000 0.000000
vn 0.000000 -1.000000 0.000000
vn 0.000000 -1.000000 0.000000
vn 0.000000 1.000000 0.000000
vn 0.000000 -1.000000 0.000000
vn 0.000000 -1.000000 0.000000
vn 0.000000 -1.000000 0.000000
vn 0.000000 1.000000 0.000000
vn 0.000000 -1.000000 0.000000
vn 0.000000 -1.000000 0.000000
vn 0.000000 1.000000 0.000000
vn 0.000000 1.000000 0.000000
vn 0.000000 1.000000 0.000000
vn 0.000000 1.000000 0.000000
vn 0.000000 1.000000 0.000000
vn 0.000000 1.000000 0.000000
vn 0.000000 1.000000 0.000000
vn 0.000000 1.000000 0.000000
vn 0.000000 1.000000 0.000000
vn 0.000000 1.000000 0.000000
vn 0.000000 1.000000 0.000000
vn 0.000000 1.000000 0.000000
#end 96 vertex normals

#begin texture vertices
vt 0.495000 0.500000 0.000000
vt 0.000000 0.500000 0.000000
vt 0.495381 0.498087 0.000000
vt 0.038060 0.308658 0.000000
vt 0.496464 0.496464 0.000000
vt 0.146447 0.146447 0.000000
vt 0.498087 0.495381 0.000000
vt 0.308658 0.038060 0.000000
vt 0.500000 0.495000 0.000000
vt 0.500000 0.000000 0.000000
vt 0.501913 0.495381 0.000000
vt 0.691342 0.038060 0.000000
vt 0.503536 0.496464 0.000000
vt 0.853553 0.146447 0.000000
vt 0.504619 0.498087 0.000000
vt 0.961940 0.308658 0.000000
vt 0.505000 0.500000 0.000000
vt 1.000000 0.500000 0.000000
vt 0.504619 0.501913 0.000000
vt 0.961940 0.691342 0.000000
vt 0.503536 0.503536 0.000000
vt 0.853553 0.853553 0.000000
vt 0.501913 0.504619 0.000000
vt 0.691342 0.961940 0.000000
vt 0.500000 0.505000 0.000000
vt 0.500000 1.000000 0.000000
vt 0.498087 0.504619 0.000000
vt 0.308658 0.961940 0.000000
vt 0.496464 0.503536 0.000000
vt 0.146447 0.853553 0.000000
vt 0.495381 0.501913 0.000000
vt 0.038060 0.691342 0.000000
vt 0.499038 0.497677 0.000000
#end 33 texture vertices

#begin 32 faces
f 10/10/15 12/12/14 33/33/13 
f 8/8/18 10/10/17 33/33/16 
f 19/19/40 17/17/39 33/33/37 
f 21/21/44 19/19/43 33/33/41 
f 23/23/48 21/21/47 33/33/45 
f 25/25/52 23/23/51 33/33/49 
f 27/27/56 25/25/55 33/33/53 
f 29/29/60 27/27/59 33/33/57 
f 31/31/64 29/29/63 33/33/61 
f 1/1/68 31/31/67 33/33/65 
f 3/3/72 1/1/71 33/33/69 
f 5/5/76 3/3/75 33/33/73 
f 7/7/80 5/5/79 33/33/77 
f 9/9/84 7/7/83 33/33/81 
f 11/11/10 9/9/11 33/33/12 
f 13/13/7 11/11/8 33/33/9 
f 15/15/4 13/13/5 33/33/6 
f 17/17/1 15/15/2 33/33/3 
f 12/12/85 14/14/86 33/33/88 
f 14/14/89 16/16/90 33/33/92 
f 16/16/93 18/18/94 33/33/96 
f 18/18/95 20/20/91 33/33/87 
f 20/20/82 22/22/78 33/33/74 
f 22/22/70 24/24/66 33/33/62 
f 24/24/58 26/26/54 33/33/50 
f 26/26/46 28/28/42 33/33/38 
f 28/28/36 30/30/35 33/33/34 
f 30/30/33 32/32/32 33/33/31 
f 32/32/30 2/2/29 33/33/28 
f 2/2/27 4/4/26 33/33/25 
f 4/4/24 6/6/23 33/33/22 
f 6/6/21 8/8/20 33/33/19 
#end 32 faces
